<svg xmlns="http://www.w3.org/2000/svg" width="512" height="512" viewBox="0 0 512 512" fill="none"><g clip-path="url(#clip0_2_190)"><mask id="mask0_2_190" style="mask-type:luminance" maskUnits="userSpaceOnUse" x="0" y="219" width="512" height="74"><path d="M512 219H0V293H512V219Z" fill="white"></path></mask><g mask="url(#mask0_2_190)"><path d="M0 228.545C0 223.072 4.05519 219 9.50658 219C14.958 219 19.0132 223.072 19.0132 228.545C19.0132 234.019 14.9477 238.09 9.50658 238.09C4.06545 238.09 0 234.019 0 228.545Z" fill="black"></path><path d="M16.9404 242.564H2.08508V291.68H16.9404V242.564Z" fill="black"></path><path d="M22.7404 266.251C22.7404 249.748 32.4421 241.296 46.9073 241.296C61.3724 241.296 71.0741 249.645 71.0741 266.251V291.712H56.2187V266.251C56.2187 258.5 52.451 255.211 46.9073 255.211C41.3635 255.211 37.5958 258.489 37.5958 266.251V291.712H22.7404V266.251Z" fill="black"></path><path d="M70.6724 242.584H86.6158L97.416 277.487L108.206 242.584H123.759L106.225 291.701H88.2072L70.6724 242.584Z" fill="black"></path><path d="M174.168 267.137C174.168 252.222 163.573 241.286 148.122 241.286C132.671 241.286 121.779 252.222 121.779 267.137C121.779 282.053 132.671 292.99 148.122 292.99C160.308 292.99 169.609 286.228 172.782 276.085H157.433C155.555 278.765 152.383 279.662 148.122 279.662C142.773 279.662 138.42 277.074 137.23 271.312H174.168V267.137ZM137.517 261.87C139.006 256.902 142.968 254.614 148.112 254.614C153.255 254.614 157.228 256.799 158.902 261.87H137.507H137.517Z" fill="black"></path><path d="M177.923 276.786H192.584C192.686 279.373 194.565 280.661 198.63 280.661C203.189 280.661 204.667 279.074 204.667 276.981C204.667 273.704 201.105 273.405 196.546 272.704C189.812 271.714 178.724 270.024 178.724 258.19C178.724 248.243 186.547 241.286 198.733 241.286C210.919 241.286 218.445 248.346 218.742 257.191H204.277C203.877 254.902 201.895 253.614 198.928 253.614C195.263 253.614 193.775 255.5 193.775 257.489C193.775 260.468 197.337 260.87 201.895 261.571C208.928 262.561 219.718 264.458 219.718 276.085C219.718 286.228 211.402 292.99 198.815 292.99C186.229 292.99 178.118 286.228 177.923 276.786Z" fill="black"></path><path d="M225.459 272.312V225.185H240.315V242.584H263.486V256.005H240.315V272.312C240.315 277.487 242.686 279.074 245.96 279.074C249.237 279.074 251.608 277.487 251.608 272.312V270.818H266.462V272.312C266.462 286.331 258.148 293 245.96 293C233.775 293 225.459 286.341 225.459 272.312Z" fill="black"></path><path d="M271.617 267.137C271.617 252.222 282.509 241.286 297.96 241.286C311.531 241.286 321.429 249.738 323.512 261.87H308.464C306.779 257.799 302.919 255.211 297.96 255.211C291.226 255.211 286.668 260.087 286.668 267.148C286.668 274.209 291.226 279.084 297.96 279.084C302.908 279.084 306.779 276.497 308.464 272.425H323.512C321.429 284.558 311.531 293.01 297.96 293.01C282.509 293.01 271.617 282.073 271.617 267.158" fill="#D83973"></path><path d="M343.511 221.103V291.701H328.656V236.018C328.656 227.782 335.308 221.103 343.511 221.103Z" fill="#D83973"></path><path d="M375.202 241.286C359.753 241.286 348.859 252.222 348.859 267.137C348.859 282.053 359.753 292.99 375.202 292.99C390.654 292.99 401.545 282.053 401.545 267.137C401.545 252.222 390.654 241.286 375.202 241.286ZM375.202 279.074C368.468 279.074 363.91 274.198 363.91 267.137C363.91 260.077 368.468 255.201 375.202 255.201C381.937 255.201 386.497 260.077 386.497 267.137C386.497 274.198 381.937 279.074 375.202 279.074Z" fill="#D83973"></path><path d="M406.362 268.034V242.584H421.217V268.034C421.217 275.796 424.984 279.074 430.529 279.074C436.071 279.074 439.841 275.796 439.841 268.034V242.584H454.695V268.034C454.695 284.537 444.982 292.99 430.529 292.99C416.073 292.99 406.362 284.64 406.362 268.034Z" fill="#D83973"></path><path d="M492.659 276.951C490.821 278.301 488.511 279.074 485.862 279.074C481.221 279.074 477.618 276.755 475.822 273.003C474.99 271.302 474.539 269.292 474.539 267.076C474.539 260.015 479.097 255.139 485.831 255.139C490.79 255.139 494.651 257.727 496.335 261.798H512.011V236.008C512.011 227.772 505.357 221.093 497.156 221.093V247.934C494.087 243.564 489.136 241.275 483.287 241.275C472.199 241.275 459.519 249.429 459.519 266.53C459.519 282.342 470.413 292.979 485.964 292.979C499.106 292.979 509.259 285.372 511.527 272.333H496.324C495.544 274.229 494.28 275.796 492.659 276.94" fill="#D83973"></path></g></g><defs><clipPath id="clip0_2_190"><rect width="512" height="74" fill="white" transform="translate(0 219)"></rect></clipPath></defs></svg>